# xmcd
#
# Track frame offsets: 
#        150
#        24854
#        41360
#        62268
#        85190
#        105727
#        119330
#        140468
#        170356
#        188441
#        212053
#        230685
#        252018
#        278476
#        299626
#        317254
#        341806
#
# Disc length: 4757 seconds
#
# Revision: 0
# Processed by: cddbd v1.5.2PL0 Copyright (c) Steve Scherf et al.
# Submitted via: ExactAudioCopy v0.95a5
#
DISCID=e3129311
DTITLE=Elton John - Forever Best! CD01
DYEAR=2007
DGENRE=Pop
TTITLE0=Durban Deep
TTITLE1=Town of Plenty
TTITLE2=A Word In Spanish
TTITLE3=Sacrifice
TTITLE4=I Don't Wanna Go On With You Like That
TTITLE5=I'm Still Standing
TTITLE6=Rocket Man (I Think It's Going to Be a Long, Long Time)
TTITLE7=Sweat It Out
TTITLE8=Your Song
TTITLE9=The North
TTITLE10=Sad Songs (Say So Much)
TTITLE11=Stone's Throw From Hurtin'
TTITLE12=The One
TTITLE13=I Guess That's Why They Call It The Blues
TTITLE14=Crocodile Rock
TTITLE15=Whispers
TTITLE16=The Last Song
EXTD=
EXTT0=
EXTT1=
EXTT2=
EXTT3=
EXTT4=
EXTT5=
EXTT6=
EXTT7=
EXTT8=
EXTT9=
EXTT10=
EXTT11=
EXTT12=
EXTT13=
EXTT14=
EXTT15=
EXTT16=
PLAYORDER=
